<?xml version="1.0" encoding="utf-8"?>
<!-- Generator: Adobe Illustrator 22.0.1, SVG Export Plug-In . SVG Version: 6.00 Build 0)  -->
<svg version="1.1" xmlns="http://www.w3.org/2000/svg" xmlns:xlink="http://www.w3.org/1999/xlink" x="0px" y="0px"
	 viewBox="0 0 337 136.7" style="enable-background:new 0 0 337 136.7;" xml:space="preserve">
<style type="text/css">
	.st0{fill:#FFFFFF;}
	.st1{fill:none;stroke:#000000;stroke-miterlimit:10;}
	.st2{fill:#F7B0B0;}
	.st3{fill:none;stroke:#160505;stroke-width:6;stroke-miterlimit:10;}
	.st4{fill:#75655D;}
	.st5{fill:#A890AC;}
	.st6{fill:none;stroke:#000000;stroke-width:4;stroke-miterlimit:10;}
</style>
<g id="圖層_2">
</g>
<g id="圖層_1">
	<g>
		<path d="M24.5,2.7C12.6,2.7,3,12.3,3,24.2C3,36,12.6,45.7,24.5,45.7C36.4,45.7,46,36,46,24.2C46,12.3,36.4,2.7,24.5,2.7z
			 M31.3,14.7c1,0.2,1.9,1,2.5,2c0.6,1,0.9,2.3-0.1,3.1c-1.3,1.1-3.4,0.7-4.1-2.4C29.1,15,30.3,14.4,31.3,14.7z M21.5,12.4
			c1-1,2.9-0.8,4.3,0.4c1.4,1.2,3.3,4.1,1.2,5.9c-1.3,1.1-4,0.9-4.9-1.4C21.3,15.3,20.6,13.2,21.5,12.4z M17,14.5
			c1.6,0,3,2.2,3.4,3.5c0.4,1.3,0.8,3.2-0.9,4.3c-1.5,0.9-4.5-0.5-4.8-3.7C14.4,15.4,15.6,14.5,17,14.5z M12.7,27.4
			c-1.1-2.1-0.7-4.4,0.7-4.5c1.4-0.1,3.1,0.5,3.8,1.5c0.7,1,1.9,2.9,0.6,4.6C16.4,30.8,13.8,29.6,12.7,27.4z M32.8,31.8
			c-2.1,1.1-2.7,0.5-3.7,1.1c-1.3,0.9-0.8,1.7-3,2.9c-1.4,0.8-2.9,0.9-4.2,0.7c-1.7-0.3-4.6-2.1-3.8-5.9c0.4-2.1,2.8-2.7,2.4-4.6
			c-0.2-1.1,0-2.4,0.6-3.4c0.7-1.2,2.1-2.3,4.1-1.9c2.9,0.5,2.7,2.9,6.9,0.9c2.1-1,4.9,1.2,4.8,4.5C36.9,28.5,35.4,30.4,32.8,31.8z"
			/>
	</g>
	<path d="M197.8,25.5H44.9c-1.1,0-1.9-0.9-1.9-1.9v0c0-1.1,0.9-1.9,1.9-1.9h152.9c1.1,0,1.9,0.9,1.9,1.9v0
		C199.8,24.6,198.9,25.5,197.8,25.5z"/>
	<path d="M304.9,133.1L196.7,25c-0.7-0.7-0.7-2,0-2.7v0c0.7-0.7,2-0.7,2.7,0l108.1,108.1c0.7,0.7,0.7,2,0,2.7l0,0
		C306.8,133.9,305.6,133.9,304.9,133.1z"/>
</g>
</svg>
