<?xml version="1.0" encoding="utf-8"?>
<!-- Generator: Adobe Illustrator 22.0.1, SVG Export Plug-In . SVG Version: 6.00 Build 0)  -->
<svg version="1.1" id="圖層_1" xmlns="http://www.w3.org/2000/svg" xmlns:xlink="http://www.w3.org/1999/xlink" x="0px" y="0px"
	 viewBox="0 0 828.4 694.4" style="enable-background:new 0 0 828.4 694.4;" xml:space="preserve">
<style type="text/css">
	.st0{fill:#FFFFFF;}
	.st1{fill:#FFFFFF;stroke:#000000;stroke-width:7;stroke-linecap:round;stroke-linejoin:round;stroke-miterlimit:10;}
	.st2{fill:#FFFFFF;stroke:#000000;stroke-width:2;}
	.st3{fill:#FFFFFF;stroke:#FFFFFF;stroke-width:6;}
	.st4{stroke:#FFFFFF;stroke-width:6;}
</style>
<g>
	<path class="st3" d="M758.5,640.2c-23.3-18.9-43.6-60.7-55.5-89.4c20-27.4,31.8-61.1,31.8-97.6c0-0.1,0-0.1,0-0.2
		c43.4-29.9,71.9-80,71.9-136.8c0-71.2-44.8-131.9-107.8-155.5C688.2,79.3,618.6,16.5,534.4,16.5c-47.7,0-90.6,20.1-120.9,52.3
		c-22.3-11.1-47.4-17.4-74-17.4c-64.5,0-120.3,36.8-147.8,90.4c-4.4-0.3-8.8-0.6-13.3-0.6c-91.7,0-166,74.3-166,166
		c0,42.4,15.9,81.1,42.1,110.4c-2.5,11.4-3.8,23.3-3.8,35.4c0,91.7,74.3,166,166,166c6.8,0,13.5-0.5,20.1-1.3
		c30.4,39.4,78,64.8,131.5,64.8c58.2,0,109.4-30,139-75.3c19,7.6,39.7,11.8,61.4,11.8c17.9,0,35.2-2.9,51.3-8.1
		C667.4,629.7,791.8,667.1,758.5,640.2z"/>
	<path class="st4" d="M368.3,688c-52.5,0-101.1-23.5-133.9-64.5c-6.1,0.6-12,1-17.8,1c-94.5,0-171.4-76.9-171.4-171.4
		c0-11.3,1.1-22.7,3.4-33.9C21.8,388.1,7,348.5,7,307.3c0-94.5,76.9-171.4,171.4-171.4c3.2,0,6.6,0.1,10.2,0.3
		c30-55.7,87.5-90.2,150.9-90.2c25.5,0,49.9,5.5,72.8,16.2c32.5-33,75.7-51.1,122.1-51.1c84.6,0,156.8,62.4,169.4,145.6
		C768.6,182.5,812,246.2,812,316.2c0,55.4-26.8,107.4-71.9,139.5c-0.5,34.7-11.2,67.6-31,95.8c17.3,41,36,71,52.8,84.6l0,0
		c2.8,2.3,10.3,8.3,6.6,14.5c-2.4,4.1-5.7,9.7-64.6-6.6c-27.9-7.7-62.1-18.9-83.9-27.3c-16.6,5.2-33.8,7.8-51.2,7.8
		c-20.4,0-40.3-3.6-59.4-10.6C477.3,660.4,424.9,688,368.3,688z M239.1,612.3l1.8,2.4c30.7,39.8,77.1,62.7,127.3,62.7
		c54.4,0,104.7-27.2,134.6-72.9l2.4-3.6l4,1.6c19,7.6,39,11.4,59.5,11.4c16.9,0,33.6-2.6,49.7-7.9l1.8-0.6l1.8,0.7
		c41.4,16.3,111.9,36.9,133.2,38.3c0,0,0,0-0.1,0l0,0c-23.8-19.2-44.2-60.4-57.1-91.5l-1.1-2.8l1.8-2.4
		c20.1-27.6,30.8-60.3,30.8-94.5v-2.8l2.3-1.8c43.6-30.1,69.6-79.6,69.6-132.4c0-66.6-41.9-127.1-104.3-150.5l-3-1.1l-0.4-3.2
		c-10.5-79.6-79-139.5-159.3-139.5c-44.7,0-86.3,18-117,50.6l-2.7,2.9l-3.5-1.8c-22.4-11.2-46.5-16.8-71.6-16.8
		c-60.6,0-115.4,33.5-143.1,87.5l-1.6,3.2l-3.5-0.3c-4.8-0.4-9-0.6-12.9-0.6c-88.6,0-160.7,72.1-160.7,160.7
		c0,39.5,14.5,77.4,40.7,106.9l1.8,2l-0.6,2.6c-2.5,11.3-3.7,22.8-3.7,34.3c0,88.6,72.1,160.7,160.7,160.7c6.3,0,12.7-0.4,19.5-1.2
		L239.1,612.3z"/>
</g>
</svg>
